# xmcd
#
# Track frame offsets:
#	182
#	12757
#	27120
#	42687
#	61015
#	75687
#	92602
#	107657
#	125350
#	141977
#	161702
#	181002
#	197120
#	213930
#	230400
#
# Disc length: 3312 seconds
#
# Revision: 1
# Processed by: cddbd v1.5.2PL0 Copyright (c) Steve Scherf et al.
# Submitted via: audiograbber 1.83.01
#
DISCID=c00cee0f
DTITLE=Various Artist - The Country Line Dance Collection
DYEAR=1998
DGENRE=Country
TTITLE0=Mi Vida Loca (My Crazy Life)
TTITLE1=(Tonight We Just Might) Fall In Love Again
TTITLE2=Cannibals
TTITLE3=He Thinks He'll Keep Her
TTITLE4=Chattahoochee
TTITLE5=Wrong Side Of Town
TTITLE6=The Bug
TTITLE7=Small Town Saturday Night
TTITLE8=Poor Boy Blues
TTITLE9=Any Man Of Mine
TTITLE10=Past The Point Of Rescue
TTITLE11=Down At The Twist and Shout
TTITLE12=Don't Let Our Love Start Slipping Away
TTITLE13=Believe Me Baby I Lied
TTITLE14=Mercury Blues
EXTD=
EXTT0=
EXTT1=
EXTT2=
EXTT3=
EXTT4=
EXTT5=
EXTT6=
EXTT7=
EXTT8=
EXTT9=
EXTT10=
EXTT11=
EXTT12=
EXTT13=
EXTT14=
PLAYORDER=
